<?xml version="1.0" standalone="no"?>
<!DOCTYPE svg PUBLIC "-//W3C//DTD SVG 20010904//EN"
 "http://www.w3.org/TR/2001/REC-SVG-20010904/DTD/svg10.dtd">
<svg version="1.0" xmlns="http://www.w3.org/2000/svg"
 width="1500.000000pt" height="1500.000000pt" viewBox="0 0 1500.000000 1500.000000"
 preserveAspectRatio="xMidYMid meet">

<g transform="translate(0.000000,1500.000000) scale(0.100000,-0.100000)"
fill="#000000" stroke="none">
<path d="M6749 12196 c-88 -31 -141 -80 -188 -175 -16 -31 -47 -92 -71 -136
-23 -44 -51 -98 -61 -120 -11 -22 -24 -47 -29 -55 -6 -8 -25 -44 -44 -80 -64
-124 -112 -215 -166 -315 -29 -55 -76 -143 -103 -195 -28 -52 -66 -124 -85
-160 -19 -36 -65 -123 -102 -195 -37 -71 -84 -159 -103 -195 -19 -36 -57 -108
-84 -160 -28 -52 -76 -144 -108 -205 -32 -60 -75 -141 -95 -180 -36 -69 -144
-273 -206 -390 -17 -33 -54 -103 -81 -155 -28 -52 -76 -144 -109 -205 -32 -60
-73 -139 -92 -175 -18 -36 -50 -96 -70 -135 -21 -38 -69 -128 -107 -200 -37
-71 -84 -159 -103 -195 -19 -36 -65 -123 -102 -195 -37 -71 -84 -159 -103
-195 -19 -36 -57 -108 -84 -160 -28 -52 -76 -144 -108 -205 -32 -60 -75 -141
-95 -180 -39 -74 -151 -287 -208 -395 -37 -68 -65 -121 -177 -335 -37 -71 -84
-159 -103 -195 -39 -74 -79 -149 -177 -335 -37 -71 -83 -157 -100 -190 -31
-57 -133 -252 -208 -395 -59 -112 -220 -418 -282 -535 -18 -33 -65 -123 -105
-200 -40 -77 -89 -169 -108 -205 -35 -66 -54 -101 -177 -335 -37 -71 -84 -159
-103 -195 -45 -85 -94 -177 -174 -330 -63 -120 -132 -251 -167 -315 -24 -44
-22 -231 3 -304 22 -63 87 -135 151 -166 47 -23 180 -26 540 -12 116 5 253 10
305 12 144 6 759 29 1025 40 72 2 254 9 405 15 151 6 334 12 405 15 72 3 193
7 270 10 77 3 181 7 230 10 50 3 164 8 255 10 312 10 390 13 950 35 146 6 326
13 400 15 209 8 353 13 640 25 270 10 464 18 670 25 157 5 621 24 750 30 212
10 411 35 452 56 59 30 248 154 443 289 102 71 157 108 205 140 25 17 61 41
80 54 19 14 55 39 80 55 25 17 77 53 115 80 39 27 98 69 133 93 34 23 85 59
112 78 27 19 68 47 92 63 45 28 85 56 152 104 22 15 63 44 92 63 29 19 85 58
125 85 39 28 86 59 103 70 18 11 49 34 70 50 22 17 54 39 71 50 29 18 61 40
205 140 19 13 53 37 74 52 22 15 63 44 92 63 29 19 85 58 125 85 40 28 86 59
103 69 17 11 49 34 71 51 22 18 54 40 70 49 17 9 62 39 100 67 39 27 101 71
139 97 38 26 95 65 126 87 111 77 203 140 241 165 21 14 68 47 106 73 37 26
98 67 134 91 117 77 169 163 169 276 0 48 -46 198 -76 250 -10 16 -79 85 -153
152 -75 68 -159 146 -187 173 -29 28 -84 79 -124 115 -40 36 -88 81 -109 101
-20 20 -97 92 -171 159 -158 144 -219 202 -269 251 -20 20 -121 114 -226 209
-104 95 -206 189 -226 209 -51 51 -99 95 -319 296 -107 97 -206 190 -220 205
-14 15 -110 105 -215 200 -104 95 -208 191 -231 214 -52 52 -84 82 -324 301
-210 192 -272 250 -329 306 -20 20 -121 114 -225 209 -105 95 -206 189 -227
209 -68 67 -133 127 -324 301 -104 95 -201 186 -215 201 -14 15 -113 107 -220
205 -217 197 -266 243 -319 295 -20 20 -124 116 -231 214 -107 98 -209 192
-226 209 -48 49 -128 123 -264 246 -69 63 -149 136 -179 164 -29 28 -75 71
-101 96 -114 107 -152 143 -271 253 -97 89 -133 129 -153 171 -63 128 -228
198 -357 152z m895 -1492 c22 -20 59 -53 81 -73 22 -21 150 -139 285 -261 135
-123 261 -240 281 -259 47 -46 95 -91 265 -247 169 -154 226 -208 273 -255 20
-20 122 -114 226 -209 105 -95 206 -189 227 -209 63 -63 128 -123 323 -301
105 -95 206 -189 227 -209 62 -61 126 -121 323 -301 105 -95 206 -190 226
-209 55 -54 120 -115 269 -251 169 -154 223 -205 269 -251 20 -20 122 -114
226 -209 105 -95 206 -189 226 -209 62 -61 126 -121 324 -302 325 -298 505
-474 505 -495 0 -25 -31 -43 -82 -48 -92 -11 -1282 -85 -1388 -88 -8 0 -325
-20 -705 -44 -379 -24 -766 -47 -860 -50 -93 -4 -181 -7 -195 -8 -19 -1 -26 6
-33 29 -5 17 -20 59 -32 95 -13 36 -35 106 -50 155 -47 154 -67 218 -85 270
-10 28 -21 64 -24 80 -4 17 -15 53 -25 80 -10 28 -30 91 -45 140 -15 50 -36
115 -46 145 -10 30 -30 96 -45 145 -15 50 -35 113 -45 140 -9 28 -29 91 -44
140 -15 50 -36 115 -46 145 -10 30 -31 96 -46 145 -15 50 -35 113 -44 140 -10
28 -30 91 -45 140 -14 50 -35 113 -46 140 -10 28 -19 57 -19 65 0 13 -18 69
-70 225 -10 28 -29 91 -44 140 -15 50 -36 115 -45 145 -10 30 -31 96 -46 145
-15 50 -36 113 -45 140 -9 28 -29 91 -45 140 -15 50 -36 115 -46 145 -9 30
-38 123 -64 205 -26 83 -57 182 -69 220 -34 104 -60 189 -91 290 -15 50 -34
110 -43 135 -9 25 -24 74 -34 110 -10 36 -28 97 -39 135 -33 113 -34 127 -13
142 27 20 43 16 88 -23z m-1046 -26 c5 -7 12 -38 15 -68 8 -87 105 -1493 112
-1615 3 -60 8 -137 10 -170 3 -33 7 -105 10 -160 6 -107 12 -215 19 -335 3
-41 8 -118 11 -170 6 -101 40 -624 101 -1544 l37 -559 -24 -18 c-13 -10 -33
-22 -44 -27 -11 -6 -58 -28 -105 -50 -47 -22 -119 -55 -160 -75 -75 -35 -234
-110 -365 -172 -147 -69 -252 -118 -315 -147 -36 -17 -96 -45 -135 -63 -150
-71 -313 -148 -375 -176 -36 -17 -96 -45 -135 -64 -72 -34 -174 -81 -305 -142
-41 -20 -124 -59 -185 -88 -60 -28 -141 -66 -180 -84 -38 -18 -101 -47 -140
-66 -38 -18 -105 -49 -147 -69 -181 -84 -228 -106 -328 -154 -58 -27 -215
-100 -350 -161 -135 -62 -258 -119 -275 -128 -57 -29 -87 -34 -107 -16 -10 9
-18 24 -18 33 0 17 118 256 235 475 33 61 75 142 96 180 54 105 168 321 207
395 19 36 51 97 72 135 20 39 67 129 105 200 38 72 85 162 105 200 20 39 53
102 74 140 21 39 67 126 103 195 37 69 83 157 103 195 20 39 68 129 105 200
38 72 83 157 101 190 17 33 54 103 81 155 28 52 76 145 109 205 66 125 101
191 196 372 36 71 83 160 104 198 20 39 53 102 74 140 20 39 67 129 105 200
38 72 85 162 105 200 20 39 53 102 74 140 21 39 67 126 103 195 37 69 83 157
103 195 20 39 68 129 105 200 38 72 83 157 101 190 17 33 54 103 81 155 68
129 159 300 204 385 21 39 51 97 68 130 16 33 37 71 45 85 8 14 24 43 35 65
10 22 36 72 56 110 21 39 55 102 75 140 21 39 52 98 71 132 19 34 47 85 63
115 15 29 35 61 44 71 18 20 55 23 70 5z m797 -1550 c14 -29 32 -75 40 -103
14 -50 31 -104 65 -200 10 -27 32 -97 50 -155 17 -58 38 -121 45 -140 7 -19
28 -82 46 -140 17 -58 49 -157 69 -220 21 -63 40 -128 44 -145 4 -16 15 -52
25 -80 19 -52 39 -115 86 -270 15 -49 35 -112 45 -140 10 -27 21 -63 25 -80 3
-16 14 -52 24 -80 11 -27 31 -90 46 -140 49 -161 77 -249 90 -285 8 -19 16
-48 20 -65 3 -16 14 -52 24 -80 11 -27 31 -90 46 -140 14 -49 35 -112 45 -140
10 -27 22 -66 25 -85 4 -19 14 -47 21 -62 8 -15 14 -36 14 -48 0 -11 9 -46 20
-77 11 -31 17 -59 15 -63 -3 -4 -17 -10 -32 -14 -48 -10 -573 -46 -685 -46
l-108 0 -1 28 c-1 15 -2 43 -4 62 -14 192 -65 932 -71 1025 -3 66 -8 145 -9
175 -9 136 -14 232 -20 325 -3 55 -21 342 -40 638 -41 622 -47 767 -33 785 22
27 48 13 73 -40z m4407 -3362 c25 -36 -7 -72 -155 -174 -37 -26 -86 -60 -109
-77 -23 -16 -65 -46 -94 -65 -28 -19 -84 -57 -124 -85 -40 -27 -87 -59 -105
-70 -17 -11 -52 -35 -76 -53 -54 -40 -133 -95 -174 -122 -29 -18 -52 -34 -190
-130 -192 -133 -257 -178 -289 -197 -15 -10 -46 -31 -68 -48 -23 -16 -58 -41
-79 -55 -40 -27 -143 -98 -243 -168 -109 -76 -198 -136 -248 -168 -27 -17 -59
-40 -71 -51 -12 -12 -37 -28 -56 -38 -19 -9 -52 -30 -74 -46 -33 -24 -43 -27
-53 -17 -13 12 -50 113 -79 208 -7 25 -19 63 -27 85 -9 22 -27 81 -42 130 -15
50 -36 115 -46 145 -10 30 -30 96 -45 145 -15 50 -35 113 -45 140 -10 28 -22
66 -26 85 -3 19 -12 48 -19 65 -7 16 -25 71 -40 120 -15 50 -35 117 -45 150
-11 33 -22 79 -26 101 l-6 42 68 11 c62 9 908 67 1129 76 177 8 307 15 770 45
259 16 490 31 515 32 71 5 164 -4 172 -16z m-3273 -211 c22 -55 124 -369 197
-605 14 -47 34 -107 44 -135 10 -27 22 -66 25 -85 4 -19 13 -46 20 -60 7 -14
16 -41 19 -60 4 -19 15 -57 25 -85 10 -27 31 -90 46 -140 15 -49 35 -117 45
-150 53 -174 58 -194 46 -203 -13 -11 -371 -31 -836 -47 -256 -9 -427 -15
-675 -25 -143 -6 -316 -13 -385 -15 -69 -3 -183 -7 -255 -10 -71 -2 -256 -9
-410 -15 -154 -6 -325 -13 -380 -15 -253 -10 -645 -25 -797 -30 -191 -7 -248
-9 -623 -24 -602 -24 -854 -29 -873 -17 -7 4 -12 19 -12 34 1 39 9 44 550 299
52 25 124 59 160 75 36 17 97 45 135 63 149 71 354 167 515 242 137 64 237
110 305 143 167 79 237 112 315 148 276 129 378 177 495 232 50 23 123 57 163
76 39 19 105 49 145 68 39 19 113 53 162 76 141 66 274 128 350 164 39 19 86
39 105 45 36 12 1166 87 1296 86 70 0 72 -1 83 -30z"/>
</g>
</svg>
